<svg width="20" height="18" viewBox="0 0 20 18" fill="none" xmlns="http://www.w3.org/2000/svg">
<path d="M18.6689 1.78306H7.1817C6.86588 0.845072 5.97868 0.167389 4.93556 0.167389C3.89244 0.167389 3.00523 0.845072 2.68942 1.78306H0.896361C0.479836 1.78306 0.142151 2.12074 0.142151 2.53727C0.142151 2.95379 0.479836 3.29148 0.896361 3.29148H2.68947C3.00528 4.22946 3.89249 4.90715 4.93561 4.90715C5.97873 4.90715 6.86593 4.22946 7.18175 3.29148H18.6689C19.0854 3.29148 19.4231 2.95379 19.4231 2.53727C19.4231 2.12074 19.0854 1.78306 18.6689 1.78306Z" fill="white"/>
<path d="M18.6689 8.2458H16.8758C16.5599 7.30781 15.6727 6.63013 14.6296 6.63013C13.5866 6.63013 12.6993 7.30781 12.3835 8.2458H0.896361C0.479836 8.2458 0.142151 8.58348 0.142151 9.00001C0.142151 9.41653 0.479836 9.75422 0.896361 9.75422H12.3835C12.6993 10.6922 13.5866 11.3699 14.6297 11.3699C15.6727 11.3699 16.56 10.6922 16.8758 9.75422H18.6689C19.0854 9.75422 19.4231 9.41653 19.4231 9.00001C19.4231 8.58348 19.0854 8.2458 18.6689 8.2458Z" fill="white"/>
<path d="M18.6689 14.7085H10.4131C10.0973 13.7705 9.21007 13.0928 8.16695 13.0928C7.12382 13.0928 6.23662 13.7705 5.92081 14.7085H0.896361C0.479836 14.7085 0.142151 15.0462 0.142151 15.4627C0.142151 15.8793 0.479836 16.2169 0.896361 16.2169H5.92081C6.23662 17.1549 7.12382 17.8326 8.16695 17.8326C9.21007 17.8326 10.0973 17.1549 10.4131 16.2169H18.6689C19.0854 16.2169 19.4231 15.8793 19.4231 15.4627C19.4231 15.0462 19.0854 14.7085 18.6689 14.7085Z" fill="white"/>
</svg>
