<svg width="31" height="30" viewBox="0 0 31 30" fill="none" xmlns="http://www.w3.org/2000/svg">
<g id="product design icon">
<path id="Shape" fill-rule="evenodd" clip-rule="evenodd" d="M3.13672 0H27.8633C29.3172 0 30.5 1.18283 30.5 2.63672V27.3633C30.5 28.8172 29.3172 30 27.8633 30H3.13672C1.68283 30 0.5 28.8172 0.5 27.3633V2.63672C0.5 1.18283 1.68283 0 3.13672 0ZM3.13672 1.75781C2.65209 1.75781 2.25781 2.15209 2.25781 2.63672V7.03125H7.58984V1.75781H3.13672ZM28.7422 27.3633C28.7422 27.8479 28.3479 28.2422 27.8633 28.2422H3.13672C2.65209 28.2422 2.25781 27.8479 2.25781 27.3633V8.78906H28.7422V27.3633ZM9.34766 7.03125H28.7422V2.63672C28.7422 2.15209 28.3479 1.75781 27.8633 1.75781H9.34766V7.03125Z" fill="#9969D3"/>
<path id="Path" d="M26.1055 3.51562H24.2891C23.8037 3.51562 23.4102 3.90914 23.4102 4.39453C23.4102 4.87992 23.8037 5.27344 24.2891 5.27344H26.1055C26.5909 5.27344 26.9844 4.87992 26.9844 4.39453C26.9844 3.90914 26.5909 3.51562 26.1055 3.51562Z" fill="#9969D3"/>
<path id="Path_2" d="M20.7734 3.51562H19.0156C18.5302 3.51562 18.1367 3.90914 18.1367 4.39453C18.1367 4.87992 18.5302 5.27344 19.0156 5.27344H20.7734C21.2588 5.27344 21.6523 4.87992 21.6523 4.39453C21.6523 3.90914 21.2588 3.51562 20.7734 3.51562Z" fill="#9969D3"/>
<path id="Path_3" d="M15.5 3.51562H13.7422C13.2568 3.51562 12.8633 3.90914 12.8633 4.39453C12.8633 4.87992 13.2568 5.27344 13.7422 5.27344H15.5C15.9854 5.27344 16.3789 4.87992 16.3789 4.39453C16.3789 3.90914 15.9854 3.51562 15.5 3.51562Z" fill="#9969D3"/>
<path id="Shape_2" fill-rule="evenodd" clip-rule="evenodd" d="M23.4102 21.3621V20.2734C23.4102 18.8196 22.2273 17.6367 20.7734 17.6367H16.3789V15.7277C17.4019 15.3649 18.1367 14.388 18.1367 13.2422C18.1367 11.7883 16.9539 10.6055 15.5 10.6055C14.0461 10.6055 12.8633 11.7883 12.8633 13.2422C12.8633 14.388 13.5981 15.3649 14.6211 15.7277V17.6367H10.2266C8.77268 17.6367 7.58984 18.8196 7.58984 20.2734V21.3621C6.56686 21.7249 5.83203 22.7019 5.83203 23.8477C5.83203 25.3015 7.01486 26.4844 8.46875 26.4844C9.92264 26.4844 11.1055 25.3015 11.1055 23.8477C11.1055 22.7019 10.3706 21.7249 9.34766 21.3621V20.2734C9.34766 19.7888 9.74193 19.3945 10.2266 19.3945H14.6211V21.3621C13.5981 21.7249 12.8633 22.7019 12.8633 23.8477C12.8633 25.3015 14.0461 26.4844 15.5 26.4844C16.9539 26.4844 18.1367 25.3015 18.1367 23.8477C18.1367 22.7019 17.4019 21.7249 16.3789 21.3621V19.3945H20.7734C21.2581 19.3945 21.6523 19.7888 21.6523 20.2734V21.3621C20.6294 21.7249 19.8945 22.7019 19.8945 23.8477C19.8945 25.3015 21.0774 26.4844 22.5312 26.4844C23.9851 26.4844 25.168 25.3015 25.168 23.8477C25.168 22.7019 24.4331 21.7249 23.4102 21.3621ZM8.46875 24.7266C7.98412 24.7266 7.58984 24.3323 7.58984 23.8477C7.58984 23.363 7.98412 22.9688 8.46875 22.9688C8.95338 22.9688 9.34766 23.363 9.34766 23.8477C9.34766 24.3323 8.95338 24.7266 8.46875 24.7266ZM14.6211 23.8477C14.6211 24.3323 15.0154 24.7266 15.5 24.7266C15.9846 24.7266 16.3789 24.3323 16.3789 23.8477C16.3789 23.363 15.9846 22.9688 15.5 22.9688C15.0154 22.9688 14.6211 23.363 14.6211 23.8477ZM15.5 14.1211C15.0154 14.1211 14.6211 13.7268 14.6211 13.2422C14.6211 12.7576 15.0154 12.3633 15.5 12.3633C15.9846 12.3633 16.3789 12.7576 16.3789 13.2422C16.3789 13.7268 15.9846 14.1211 15.5 14.1211ZM21.6523 23.8477C21.6523 24.3323 22.0466 24.7266 22.5312 24.7266C23.0159 24.7266 23.4102 24.3323 23.4102 23.8477C23.4102 23.363 23.0159 22.9688 22.5312 22.9688C22.0466 22.9688 21.6523 23.363 21.6523 23.8477Z" fill="#9969D3"/>
</g>
</svg>
