<svg width="30" height="30" viewBox="0 0 30 30" fill="none" xmlns="http://www.w3.org/2000/svg">
<path fill-rule="evenodd" clip-rule="evenodd" d="M18.5742 8.84766H27.3633C28.8172 8.84766 30 10.0305 30 11.4844V27.3633C30 28.8172 28.8172 30 27.3633 30H18.5742C17.1203 30 15.9375 28.8172 15.9375 27.3633V11.4844C15.9375 10.0305 17.1203 8.84766 18.5742 8.84766ZM27.3633 28.2422C27.848 28.2422 28.2422 27.8479 28.2422 27.3633V26.4844H17.6953V27.3633C17.6953 27.8479 18.0896 28.2422 18.5742 28.2422H27.3633ZM28.2422 24.7266H17.6953V14.1211H28.2422V24.7266ZM17.6953 12.3633H28.2422V11.4844C28.2422 10.9997 27.8479 10.6055 27.3633 10.6055H18.5742C18.0896 10.6055 17.6953 10.9997 17.6953 11.4844V12.3633Z" fill="#5A5F69"/>
<path d="M13.8051 26.7418L12.0473 24.984C11.7041 24.6407 11.1476 24.6407 10.8043 24.984C10.4611 25.3272 10.4611 25.8837 10.8043 26.2269L11.0617 26.4843H6.15234C5.66771 26.4843 5.27344 26.09 5.27344 25.6054V23.8476C5.27344 23.3622 4.87992 22.9687 4.39453 22.9687C3.90914 22.9687 3.51562 23.3622 3.51562 23.8476V25.6054C3.51562 27.0593 4.69846 28.2421 6.15234 28.2421H11.0617L10.8043 28.4995C10.4611 28.8428 10.4611 29.3992 10.8043 29.7425C11.1475 30.0857 11.704 30.0857 12.0473 29.7425L13.8051 27.9847C14.1472 27.6427 14.1474 27.0841 13.8051 26.7418Z" fill="#5A5F69"/>
<path d="M23.8477 1.75781H18.9383L19.1957 1.50041C19.5389 1.15717 19.5389 0.600703 19.1957 0.257461C18.8525 -0.0857813 18.296 -0.0857813 17.9527 0.257461L16.1949 2.01527C15.849 2.36109 15.8565 2.91984 16.195 3.25822L17.9528 5.01604C18.296 5.35922 18.8525 5.35928 19.1957 5.01604C19.539 4.67279 19.539 4.11633 19.1957 3.77309L18.9383 3.51562H23.8477C24.3323 3.51562 24.7266 3.9099 24.7266 4.39453V6.15234C24.7266 6.63773 25.1201 7.03125 25.6055 7.03125C26.0909 7.03125 26.4844 6.63773 26.4844 6.15234V4.39453C26.4844 2.94064 25.3015 1.75781 23.8477 1.75781Z" fill="#5A5F69"/>
<path fill-rule="evenodd" clip-rule="evenodd" d="M2.63672 0H11.4258C12.8797 0 14.0625 1.18283 14.0625 2.63672V18.5156C14.0625 19.9695 12.8797 21.1523 11.4258 21.1523H2.63672C1.18283 21.1523 0 19.9695 0 18.5156V2.63672C0 1.18283 1.18283 0 2.63672 0ZM11.4258 19.3945C11.9104 19.3945 12.3047 19.0003 12.3047 18.5156V17.6367H1.75781V18.5156C1.75781 19.0003 2.15209 19.3945 2.63672 19.3945H11.4258ZM12.3047 15.8789H1.75781V5.27344H12.3047V15.8789ZM1.75781 3.51562H12.3047V2.63672C12.3047 2.15209 11.9104 1.75781 11.4258 1.75781H2.63672C2.15209 1.75781 1.75781 2.15209 1.75781 2.63672V3.51562Z" fill="#5A5F69"/>
</svg>
